<?xml version="1.0" standalone="no"?>
<!DOCTYPE svg PUBLIC "-//W3C//DTD SVG 20010904//EN"
 "http://www.w3.org/TR/2001/REC-SVG-20010904/DTD/svg10.dtd">
<svg version="1.0" xmlns="http://www.w3.org/2000/svg"
 width="600.000000pt" height="400.000000pt" viewBox="0 0 600.000000 400.000000"
 preserveAspectRatio="xMidYMid meet">

<g transform="translate(0.000000,400.000000) scale(0.100000,-0.100000)"
fill="#000000" stroke="none">
<path d="M2826 3699 c-143 -34 -272 -155 -316 -296 l-18 -58 -136 -3 -135 -3
-3 -146 -3 -146 -52 -13 c-131 -34 -232 -115 -290 -232 -38 -75 -38 -77 -38
-197 0 -117 1 -123 34 -189 59 -120 170 -208 300 -238 l51 -11 0 -124 0 -123
134 0 134 0 7 -50 c10 -72 67 -183 123 -238 59 -60 155 -108 245 -123 226 -38
463 130 495 352 l7 54 138 3 137 3 0 123 0 124 41 7 c63 11 170 69 222 122 27
27 64 80 84 120 31 63 36 84 40 165 6 103 -13 181 -63 260 -60 94 -182 179
-280 194 l-44 6 0 149 0 149 -139 0 -138 0 -7 31 c-11 59 -66 156 -114 205
-106 108 -272 157 -416 123z m169 -30 c159 -29 303 -169 330 -321 l7 -37 132
-3 131 -3 3 -146 3 -146 49 -6 c163 -19 310 -165 343 -338 38 -206 -118 -421
-335 -462 l-58 -11 0 -118 0 -118 -134 0 -133 0 -5 -64 c-3 -38 -16 -87 -31
-120 -34 -74 -128 -168 -204 -204 -52 -24 -70 -27 -163 -27 -99 0 -109 2 -173
33 -125 62 -209 175 -230 312 l-11 70 -133 0 -133 0 0 118 0 118 -58 12 c-129
27 -234 109 -294 229 -31 64 -33 74 -33 173 0 96 3 110 30 165 58 117 189 216
307 231 l47 7 3 146 3 146 134 5 134 5 14 55 c37 145 158 263 305 295 80 17
83 17 153 4z"/>
<path d="M2789 3626 c-31 -12 -70 -32 -86 -44 -73 -52 -139 -159 -150 -244 -3
-22 -12 -42 -19 -45 -7 -2 -68 -5 -136 -6 l-123 -2 -2 -130 c-2 -71 -3 -137
-3 -146 0 -12 -14 -18 -51 -23 -243 -32 -395 -270 -318 -498 48 -145 148 -228
310 -260 l64 -13 0 -115 -1 -115 136 -5 135 -5 3 -58 c5 -111 67 -225 156
-286 245 -169 583 -12 604 281 l5 68 133 0 134 0 0 118 0 119 67 12 c37 7 90
23 118 37 62 29 148 116 175 177 44 99 44 225 0 324 -27 61 -88 136 -106 129
-8 -3 -13 0 -11 7 4 20 -119 76 -184 83 l-59 7 0 148 0 148 -131 0 c-72 0
-132 1 -133 3 -1 2 -9 35 -19 73 -31 125 -120 223 -242 266 -78 27 -193 26
-266 -5z m283 -40 c107 -51 189 -164 204 -282 l6 -54 134 0 134 0 0 -150 0
-150 63 0 c118 0 236 -80 295 -200 23 -47 27 -67 27 -145 0 -80 -4 -97 -29
-148 -35 -69 -109 -140 -174 -169 -26 -12 -77 -23 -114 -26 l-67 -5 -3 -121
-3 -121 -131 -3 -131 -3 -6 -74 c-14 -193 -159 -336 -342 -338 -202 -2 -355
150 -355 355 l0 58 -135 0 -135 0 0 124 0 124 -67 4 c-298 17 -434 377 -223
588 64 65 129 94 218 98 l72 4 0 149 0 149 134 0 133 0 6 55 c24 235 278 381
489 281z"/>
<path d="M2903 3298 c-70 -34 -79 -231 -18 -365 29 -64 38 -68 20 -10 -32 108
-29 257 5 300 18 21 19 21 37 4 31 -31 30 -224 -3 -336 -3 -9 5 2 17 24 33 59
49 130 49 218 0 86 -16 136 -51 161 -27 18 -26 18 -56 4z"/>
<path d="M2746 3091 c-47 -52 -173 -54 -290 -6 -17 7 -17 6 -3 -21 21 -41 30
-90 29 -156 -1 -59 -11 -88 -44 -124 l-19 -21 50 5 c64 6 168 -25 238 -72 73
-48 83 -52 43 -17 -36 32 -205 121 -229 121 -9 0 -11 6 -6 18 18 42 26 100 20
142 l-6 45 70 -3 c48 -3 80 1 100 11 l29 14 27 -66 c25 -62 110 -201 122 -201
3 0 -2 10 -11 23 -9 12 -33 56 -54 97 -30 61 -38 89 -42 154 -5 78 -5 78 -24
57z"/>
<path d="M3088 3058 c5 -67 -29 -171 -79 -243 -23 -33 -32 -51 -19 -40 29 26
94 137 117 198 15 41 21 47 38 41 11 -3 56 -9 100 -13 l80 -6 0 -77 c1 -47 6
-83 13 -90 16 -16 15 -28 -2 -28 -25 0 -190 -88 -226 -120 l-35 -31 35 25 c20
14 67 40 105 57 57 27 82 33 141 33 l71 1 -24 37 c-41 61 -40 173 2 270 7 17
5 17 -29 3 -45 -19 -142 -30 -189 -21 -19 4 -50 17 -68 29 l-34 23 3 -48z"/>
<path d="M2332 2635 c-50 -22 -39 -47 28 -64 61 -15 200 -4 275 22 47 16 41
21 -57 41 -95 20 -202 20 -246 1z"/>
<path d="M3270 2634 c-35 -8 -68 -18 -73 -23 -21 -21 185 -55 271 -45 55 7
100 33 88 52 -20 33 -171 41 -286 16z"/>
<path d="M2717 2525 c-68 -48 -151 -77 -223 -79 l-60 -1 19 -33 c11 -19 23
-52 28 -75 8 -48 -5 -147 -26 -187 l-14 -26 52 17 c79 28 181 25 235 -6 l42
-24 0 60 c0 74 26 150 79 232 l41 62 -35 -39 c-20 -22 -57 -84 -83 -138 -36
-75 -50 -96 -62 -91 -8 4 -52 9 -98 11 l-83 3 6 42 c6 38 -2 97 -19 137 -4 11
18 26 89 59 52 24 112 59 132 77 48 42 41 41 -20 -1z"/>
<path d="M3105 2536 c37 -33 134 -87 196 -110 l46 -18 -14 -41 c-8 -24 -13
-67 -11 -99 l3 -57 -72 0 c-39 0 -81 -4 -92 -10 -26 -15 -41 -14 -41 2 0 36
-125 256 -138 243 -2 -3 8 -20 22 -38 54 -71 81 -147 81 -229 l0 -77 28 24
c15 13 44 26 63 30 54 10 165 -1 202 -20 17 -9 32 -15 32 -14 0 2 -9 32 -20
66 -31 100 -22 190 25 242 12 13 7 15 -50 16 -81 1 -145 25 -265 100 -19 13
-18 10 5 -10z"/>
<path d="M2889 2289 c-65 -129 -56 -348 16 -375 92 -36 140 162 80 330 -13 38
-30 74 -36 80 -9 8 -10 6 -5 -9 27 -74 35 -263 15 -309 -17 -36 -36 -39 -56
-9 -23 35 -23 214 0 286 8 26 13 47 11 47 -2 0 -13 -18 -25 -41z"/>
<path d="M3015 1186 c-17 -7 -36 -20 -44 -29 -19 -24 -31 -21 -31 6 0 19 -5
23 -22 21 -13 -1 -99 -3 -193 -3 l-170 -1 -1 -146 c-1 -128 -4 -149 -21 -172
-29 -39 -90 -42 -123 -7 -24 25 -25 34 -30 178 l-5 152 -48 1 -48 0 3 -172 c3
-188 7 -200 72 -248 39 -30 176 -30 226 -1 61 36 75 73 79 213 l3 122 39 0 39
0 0 -175 0 -175 50 0 50 0 0 175 0 175 45 0 45 0 0 -48 c0 -65 18 -86 95 -112
92 -30 111 -54 81 -95 -18 -26 -86 -23 -124 4 l-29 20 -21 -44 -21 -43 49 -21
c66 -28 134 -27 194 3 45 23 48 23 43 5 -5 -17 1 -19 50 -19 54 0 55 0 70 40
l16 40 84 0 83 0 16 -40 c16 -40 16 -40 71 -40 49 0 54 2 48 18 -4 9 -40 107
-82 217 l-74 200 -61 -1 -60 -2 -55 -143 c-53 -142 -73 -181 -73 -145 0 10 -7
33 -16 51 -15 32 -41 48 -125 76 -50 16 -66 44 -42 71 18 20 64 22 105 4 12
-6 21 0 32 23 23 43 21 47 -31 65 -56 19 -98 20 -138 2z m434 -205 c12 -35 21
-68 21 -73 0 -9 -93 -11 -102 -2 -4 3 5 39 19 81 14 41 29 71 33 66 5 -4 18
-37 29 -72z"/>
<path d="M1470 506 c0 -159 1 -166 20 -166 18 0 20 7 20 75 l0 75 85 0 85 0 0
-75 c0 -68 2 -75 20 -75 19 0 20 7 20 166 0 152 -1 165 -17 162 -15 -3 -19
-16 -21 -76 l-3 -72 -84 0 -84 0 -3 72 c-2 60 -6 73 -20 76 -17 3 -18 -10 -18
-162z"/>
<path d="M3122 653 c-93 -46 -103 -224 -16 -292 20 -16 41 -21 83 -21 64 1 94
14 122 56 25 38 25 64 -1 64 -12 0 -20 -7 -20 -16 0 -8 -13 -29 -29 -45 -33
-33 -75 -38 -120 -15 -36 19 -51 55 -51 126 0 77 32 118 98 127 39 5 45 3 76
-31 19 -20 42 -36 50 -36 20 0 20 4 1 40 -30 57 -123 78 -193 43z"/>
<path d="M3635 658 c-3 -7 -4 -80 -2 -163 2 -133 4 -150 20 -153 16 -3 17 10
17 162 0 142 -2 166 -15 166 -9 0 -18 -6 -20 -12z"/>
<path d="M3730 505 c0 -140 2 -165 15 -165 13 0 15 25 15 165 0 140 -2 165
-15 165 -13 0 -15 -25 -15 -165z"/>
<path d="M1824 561 c-69 -43 -70 -158 -2 -205 32 -23 100 -20 131 5 54 42 58
148 7 194 -29 27 -99 30 -136 6z m91 -17 c8 -4 22 -19 30 -35 49 -94 -40 -185
-112 -113 -22 22 -25 32 -20 72 7 65 49 96 102 76z"/>
<path d="M2047 573 c-4 -3 -7 -57 -7 -120 0 -106 1 -113 20 -113 18 0 20 7 20
85 0 94 16 125 64 125 45 0 56 -23 56 -121 0 -72 3 -89 15 -89 12 0 15 18 15
100 0 87 -3 103 -20 120 -26 26 -80 26 -114 -1 l-26 -20 0 20 c0 21 -11 27
-23 14z"/>
<path d="M2328 563 c-14 -9 -31 -27 -37 -40 -26 -56 -4 -150 38 -173 11 -5 39
-10 63 -10 71 1 108 44 108 125 0 40 -5 52 -34 81 -27 27 -42 34 -72 34 -22 0
-51 -8 -66 -17z m107 -38 c50 -49 21 -155 -42 -155 -37 0 -60 16 -72 51 -13
38 -5 76 22 107 27 29 62 28 92 -3z"/>
<path d="M2547 573 c-3 -5 -4 -57 -4 -118 2 -96 4 -110 20 -113 15 -3 17 5 17
68 0 84 10 107 56 126 36 15 46 44 15 44 -10 0 -30 -9 -44 -20 -25 -20 -25
-20 -30 0 -5 20 -22 27 -30 13z"/>
<path d="M2716 559 c-26 -20 -32 -42 -20 -73 3 -9 32 -23 63 -32 65 -19 81
-30 81 -54 0 -35 -78 -42 -110 -10 -11 11 -27 20 -35 20 -14 0 -14 -3 -1 -29
18 -34 34 -41 87 -41 66 0 99 24 99 72 0 32 -29 55 -80 64 -49 9 -70 22 -70
43 0 35 66 43 95 11 10 -11 24 -20 32 -20 22 0 15 27 -13 49 -35 27 -93 27
-128 0z"/>
<path d="M3419 565 c-59 -32 -71 -145 -20 -196 42 -41 107 -41 153 0 31 27 33
34 33 91 0 57 -2 64 -33 91 -37 33 -88 38 -133 14z m106 -40 c49 -49 21 -155
-41 -155 -36 0 -54 11 -70 42 -30 57 8 138 63 138 13 0 35 -11 48 -25z"/>
<path d="M3850 553 c-37 -33 -49 -91 -30 -147 14 -43 52 -66 107 -66 42 1 63
13 82 48 10 18 9 22 -4 22 -8 0 -24 -9 -35 -20 -39 -39 -120 -12 -120 40 0 18
7 20 85 20 85 0 85 0 85 26 0 89 -104 136 -170 77z m110 -23 c38 -38 27 -50
-45 -50 -51 0 -65 3 -65 15 0 23 37 55 65 55 14 0 34 -9 45 -20z"/>
<path d="M4097 560 c-33 -26 -50 -80 -42 -130 12 -74 96 -114 153 -74 21 14
22 14 22 -9 0 -39 -31 -70 -69 -69 -18 0 -41 8 -50 16 -19 17 -51 21 -51 7 0
-5 12 -19 26 -30 35 -28 112 -29 145 -2 23 18 24 27 29 161 5 138 -1 170 -24
138 -10 -14 -14 -14 -31 -2 -27 20 -78 17 -108 -6z m113 -37 c44 -56 8 -153
-55 -153 -60 0 -88 108 -40 155 32 33 68 32 95 -2z"/>
<path d="M4350 553 c-33 -30 -48 -88 -36 -138 19 -77 121 -102 178 -44 23 22
28 33 20 41 -9 9 -18 4 -36 -15 -43 -46 -126 -25 -126 33 0 18 7 20 85 20 84
0 85 0 85 25 0 91 -103 138 -170 78z m110 -23 c38 -38 27 -50 -45 -50 -51 0
-65 3 -65 15 0 23 37 55 65 55 14 0 34 -9 45 -20z"/>
</g>
</svg>
